<svg xmlns="http://www.w3.org/2000/svg" viewBox="0 0 1060 1060">
  <!-- Brand red disc — same primary as the landing-page accent (#ff0056). -->
  <circle cx="530" cy="530" r="530" fill="#ff0056"/>
  <!-- Torii gate icon. Scale 5× (slightly smaller than before), stronger outline + drop shadow.
       Source viewBox 150x187.5; glyph occupies roughly x[4..146], y[17..132].
       Translate (155 157.5) lands the glyph centered at (530, 530). -->
  <g transform="translate(155 157.5) scale(5)">
    <!-- Drop shadow: same path offset down (8 source-units = 40 actual after scale). -->
    <path fill="#0a0a0a" transform="translate(0 8)" d="M145.5,17c-26.4,9.4-61,9.4-70.6,9.2h-0.3C65.1,26.4,30.4,26.4,4,17c0,0-2.9-1-0.1,5.8C4,22.9,4,23.1,4,23.2 c0.4,1.9,4.5,17.9,17.6,21.4c0.8,0.2,1.4,0.9,1.7,1.7l1.5,5.3c0.1,0.2,0.1,0.4,0.2,0.6c0.3,0.6,1.1,1.7,1.8,1.7h1.5 c1.3,0,2.4,1.1,2.5,2.4v6.1H18.4c-1.1,0-2,0.9-2,2v8c0,1.1,0.9,2,2,2h12.4v55.8c0,1.3,1.1,2.4,2.4,2.4h13.1c1.3,0,2.4-1.1,2.4-2.4 V74.3h51.9v55.8c0,1.3,1.1,2.4,2.4,2.4h13.1c1.3,0,2.4-1.1,2.4-2.4V74.3h12.4c1.1,0,2-0.9,2-2v-8c0-1.1-0.9-2-2-2h-12.4v-6.1 c0-1.3,1.1-2.4,2.5-2.4h1.5c0.8,0,1.5-1.1,1.8-1.7c0.1-0.2,0.2-0.4,0.2-0.6l1.5-5.3c0.2-0.8,0.9-1.5,1.7-1.7 c13.1-3.6,17.1-19.5,17.6-21.4c0-0.1,0.1-0.3,0.1-0.4C148.4,16.1,145.5,17,145.5,17z M67.7,60.3c0,0.3-0.2,0.5-0.5,0.5H49.3 c-0.3,0-0.5-0.2-0.5-0.5v-8c0-0.3,0.2-0.5,0.5-0.5h17.9c0.3,0,0.5,0.2,0.5,0.5V60.3z M100.7,60.3c0,0.3-0.2,0.5-0.5,0.5H82.3 c-0.3,0-0.5-0.2-0.5-0.5v-8c0-0.3,0.2-0.5,0.5-0.5h17.9c0.3,0,0.5,0.2,0.5,0.5V60.3z"/>
    <!-- White torii with thicker black outline (3 source-units = 15 actual after scale). -->
    <path fill="#ffffff" stroke="#0a0a0a" stroke-width="3" stroke-linejoin="round" d="M145.5,17c-26.4,9.4-61,9.4-70.6,9.2h-0.3C65.1,26.4,30.4,26.4,4,17c0,0-2.9-1-0.1,5.8C4,22.9,4,23.1,4,23.2 c0.4,1.9,4.5,17.9,17.6,21.4c0.8,0.2,1.4,0.9,1.7,1.7l1.5,5.3c0.1,0.2,0.1,0.4,0.2,0.6c0.3,0.6,1.1,1.7,1.8,1.7h1.5 c1.3,0,2.4,1.1,2.5,2.4v6.1H18.4c-1.1,0-2,0.9-2,2v8c0,1.1,0.9,2,2,2h12.4v55.8c0,1.3,1.1,2.4,2.4,2.4h13.1c1.3,0,2.4-1.1,2.4-2.4 V74.3h51.9v55.8c0,1.3,1.1,2.4,2.4,2.4h13.1c1.3,0,2.4-1.1,2.4-2.4V74.3h12.4c1.1,0,2-0.9,2-2v-8c0-1.1-0.9-2-2-2h-12.4v-6.1 c0-1.3,1.1-2.4,2.5-2.4h1.5c0.8,0,1.5-1.1,1.8-1.7c0.1-0.2,0.2-0.4,0.2-0.6l1.5-5.3c0.2-0.8,0.9-1.5,1.7-1.7 c13.1-3.6,17.1-19.5,17.6-21.4c0-0.1,0.1-0.3,0.1-0.4C148.4,16.1,145.5,17,145.5,17z M67.7,60.3c0,0.3-0.2,0.5-0.5,0.5H49.3 c-0.3,0-0.5-0.2-0.5-0.5v-8c0-0.3,0.2-0.5,0.5-0.5h17.9c0.3,0,0.5,0.2,0.5,0.5V60.3z M100.7,60.3c0,0.3-0.2,0.5-0.5,0.5H82.3 c-0.3,0-0.5-0.2-0.5-0.5v-8c0-0.3,0.2-0.5,0.5-0.5h17.9c0.3,0,0.5,0.2,0.5,0.5V60.3z"/>
  </g>
</svg>
