<?xml version='1.0' encoding='utf-8'?>
<svg xmlns="http://www.w3.org/2000/svg" viewBox="-41.338 -176.839 4295.119 1346.598" style="fill-rule:evenodd;clip-rule:evenodd;stroke-linejoin:round;stroke-miterlimit:2;">
  <g id="dojofoo-simple-3d">
    <path style="fill:white;" d="M1462.144,255.211 C1448.223,268.946 1450.967,352.624 1451.442,377.080 C1451.946,403.017 1448.126,466.907 1460.579,480.291 C1468.087,488.360 1491.927,491.130 1517.752,491.589 C1542.876,492.036 1761.686,491.586 1761.686,491.586 C1761.686,491.586 1750.493,618.767 1661.468,728.763 C1579.195,830.416 1490.604,860.074 1477.316,882.276 C1462.666,906.756 1504.719,987.593 1510.786,1002.381 C1518.294,1020.681 1547.520,1092.611 1566.198,1103.179 C1588.681,1115.900 1686.554,1041.161 1730.907,1002.227 C1785.556,954.256 1831.100,892.971 1862.351,840.795 C1896.124,784.408 1916.449,727.437 1935.243,666.166 C1955.539,599.999 1963.395,535.659 1970.692,469.083 C1985.660,332.539 1986.166,277.397 1972.280,263.259 C1968.720,259.634 1967.408,253.188 1940.725,252.464 C1896.751,251.269 1626.508,250.639 1553.908,247.968 C1496.676,245.863 1473.535,243.970 1462.144,255.211 Z" />
    <path d="M1989.048,238.380 C1996.628,246.449 2003.623,260.119 2006.495,283.343 C2010.352,314.543 2007.392,373.186 1996.376,473.745 C1988.812,542.776 1980.495,609.436 1959.466,678.050 C1939.828,742.121 1918.438,801.600 1883.146,860.582 C1850.517,915.108 1802.924,979.120 1745.855,1029.287 C1713.590,1057.649 1654.052,1104.083 1613.186,1125.017 C1597.874,1132.860 1584.534,1137.207 1574.980,1137.777 C1566.884,1138.260 1560.211,1136.438 1555.017,1133.504 C1546.626,1128.767 1535.940,1116.920 1526.007,1100.298 C1509.570,1072.791 1492.577,1031.361 1486.993,1017.764 C1482.463,1006.733 1459.488,961.026 1451.242,925.738 C1445.035,899.166 1447.665,876.140 1455.896,862.401 C1461.247,853.469 1474.808,841.890 1495.435,828.808 C1529.698,807.077 1587.848,773.089 1642.911,705.133 C1696.172,639.399 1719.330,567.182 1729.014,524.763 C1666.984,524.932 1536.536,525.240 1517.492,524.920 C1496.952,524.577 1477.536,522.623 1464.787,518.532 C1454.984,515.387 1447.734,510.485 1443.138,505.553 C1435.967,497.854 1429.342,482.632 1426.723,462.058 C1423.360,435.638 1425.000,396.822 1424.626,377.642 C1424.271,359.406 1422.916,310.269 1427.115,277.397 C1430.159,253.555 1437.850,236.332 1445.381,228.912 C1453.107,221.298 1463.636,215.826 1480.167,213.945 C1495.462,212.205 1518.536,213.309 1554.412,214.666 C1626.974,217.410 1897.074,218.313 1941.025,219.553 C1978.053,220.596 1988.361,237.199 1989.048,238.380 Z M1462.144,255.211 C1448.223,268.946 1450.967,352.624 1451.442,377.080 C1451.946,403.017 1448.126,466.907 1460.579,480.291 C1468.087,488.360 1491.927,491.130 1517.752,491.589 C1542.876,492.036 1761.686,491.586 1761.686,491.586 C1761.686,491.586 1750.493,618.767 1661.468,728.763 C1579.195,830.416 1490.604,860.074 1477.316,882.276 C1462.666,906.756 1504.719,987.593 1510.786,1002.381 C1518.294,1020.681 1547.520,1092.611 1566.198,1103.179 C1588.681,1115.900 1686.554,1041.161 1730.907,1002.227 C1785.556,954.256 1831.100,892.971 1862.351,840.795 C1896.124,784.408 1916.449,727.437 1935.243,666.166 C1955.539,599.999 1963.395,535.659 1970.692,469.083 C1985.660,332.539 1986.166,277.397 1972.280,263.259 C1968.720,259.634 1967.408,253.188 1940.725,252.464 C1896.751,251.269 1626.508,250.639 1553.908,247.968 C1496.676,245.863 1473.535,243.970 1462.144,255.211 Z" />
    <path style="fill:white;" d="M111.700,755.611 C111.700,755.611 207.783,758.765 219.974,739.076 C232.199,719.332 217.836,367.920 222.740,359.295 C225.742,354.016 545.941,355.743 545.941,355.743 C545.941,355.743 529.188,601.036 441.900,703.341 C354.171,806.164 250.787,842.056 180.944,871.769 C144.684,887.194 191.130,997.106 195.936,1013.399 C208.540,1056.132 230.510,1116.865 253.550,1124.296 C263.672,1127.560 356.769,1131.312 533.041,969.169 C651.450,860.252 690.829,762.366 728.338,610.604 C771.413,436.320 774.403,156.032 762.690,144.752 C742.548,125.357 755.043,133.275 392.766,125.803 C22.495,118.166 15.857,109.147 3.041,128.974 C-5.154,141.653 -3.278,207.266 -2.305,362.494 C-1.190,540.179 -1.404,719.807 2.751,734.343 C8.934,755.971 111.700,755.611 111.700,755.611 Z" />
    <path d="M250.518,391.768 C250.743,460.815 255.752,625.506 253.064,701.621 C252.330,722.415 250.716,737.790 248.878,745.372 C247.267,752.015 245.017,756.664 243.119,759.735 C239.820,765.069 234.870,770.436 227.887,774.717 C220.412,779.302 208.951,783.192 195.540,785.620 C162.639,791.574 115.465,790.483 111.203,790.369 L111.174,790.370 C104.213,790.312 38.319,789.475 7.794,778.156 C-11.494,771.003 -21.708,756.897 -24.941,745.602 C-26.076,741.637 -27.781,728.762 -28.502,708.604 C-30.622,649.235 -30.682,505.206 -31.582,362.427 C-32.278,252.107 -33.338,186.367 -31.105,152.430 C-29.487,127.839 -24.457,113.891 -20.234,107.364 C-12.408,95.270 -6.506,86.544 19.587,83.380 C49.773,79.720 132.070,85.641 392.831,91.288 C611.951,96.033 694.271,95.080 729.651,97.751 C764.135,100.357 767.970,106.663 779.802,118.074 C783.003,121.161 787.090,126.338 789.956,135.142 C792.180,141.971 794.609,157.298 795.630,179.324 C799.581,264.623 790.486,477.352 755.128,620.521 C715.818,779.696 674.201,882.106 550.069,996.442 C420.766,1115.542 333.552,1148.475 289.412,1156.973 C264.548,1161.759 250.020,1159.068 245.833,1157.722 C234.118,1153.957 221.636,1143.519 210.617,1126.752 C193.779,1101.129 178.470,1058.373 168.666,1025.169 C164.997,1012.742 140.021,950.015 138.356,907.887 C136.989,873.302 148.660,848.701 171.350,839.074 C238.337,810.647 337.878,777.145 422.053,678.605 C453.921,641.298 474.773,582.708 489.151,526.390 C502.536,473.968 510.055,423.013 513.977,389.981 C450.390,389.824 308.970,389.730 250.518,391.768 Z M111.700,755.611 C111.700,755.611 207.783,758.765 219.974,739.076 C232.199,719.332 217.836,367.920 222.740,359.295 C225.742,354.016 545.941,355.743 545.941,355.743 C545.941,355.743 529.188,601.036 441.900,703.341 C354.171,806.164 250.787,842.056 180.944,871.769 C144.684,887.194 191.130,997.106 195.936,1013.399 C208.540,1056.132 230.510,1116.865 253.550,1124.296 C263.672,1127.560 356.769,1131.312 533.041,969.169 C651.450,860.252 690.829,762.366 728.338,610.604 C771.413,436.320 774.403,156.032 762.690,144.752 C742.548,125.357 755.043,133.275 392.766,125.803 C22.495,118.166 15.857,109.147 3.041,128.974 C-5.154,141.653 -3.278,207.266 -2.305,362.494 C-1.190,540.179 -1.404,719.807 2.751,734.343 C8.934,755.971 111.700,755.611 111.700,755.611 Z" />
    <path style="fill:white;" d="M1407.269,279.426 L1406.075,969.373 C1406.037,991.217 1391.746,1009.057 1374.165,1009.187 L847.983,1013.087 C829.810,1013.222 815.062,995.275 815.089,973.035 L815.934,270.552 C815.961,248.283 830.762,230.442 848.948,230.737 L1375.476,239.279 C1393.068,239.565 1407.307,257.554 1407.269,279.426 Z M1224.764,493.189 C1224.777,484.919 1219.362,478.156 1212.678,478.097 L1014.658,476.345 C1007.890,476.285 1002.383,482.997 1002.372,491.323 L1002.012,754.096 C1002.000,762.419 1007.487,769.175 1014.254,769.175 L1212.224,769.166 C1218.908,769.166 1224.342,762.455 1224.355,754.188 L1224.764,493.189 Z" />
    <path d="M1434.124,279.829 L1432.914,969.207 C1432.844,1009.462 1406.520,1042.364 1374.108,1042.637 L847.941,1047.078 C814.407,1047.361 787.171,1014.262 787.219,973.208 L788.048,270.134 C788.096,229.025 815.431,196.118 848.990,196.697 L1375.533,205.781 C1407.967,206.341 1434.194,239.521 1434.124,279.829 Z M1407.269,279.426 C1407.307,257.554 1393.068,239.565 1375.476,239.279 L848.948,230.737 C830.762,230.442 815.961,248.283 815.934,270.552 L815.089,973.035 C815.062,995.275 829.810,1013.222 847.983,1013.087 L1374.165,1009.187 C1391.746,1009.057 1406.037,991.217 1406.075,969.373 L1407.269,279.426 Z M1224.764,493.189 L1224.355,754.188 C1224.342,762.455 1218.908,769.166 1212.224,769.166 L1014.254,769.175 C1007.487,769.175 1002.000,762.419 1002.012,754.096 L1002.372,491.323 C1002.383,482.997 1007.890,476.285 1014.658,476.345 L1212.678,478.097 C1219.362,478.156 1224.777,484.919 1224.764,493.189 Z M1029.867,510.317 L1029.553,735.353 L1197.193,735.518 L1197.539,511.628 L1029.867,510.317 Z" />
    <path style="fill:white;" d="M2566.877,298.230 L2565.039,963.594 C2564.980,984.660 2551.671,1001.861 2535.320,1001.983 L2046.265,1005.630 C2029.383,1005.756 2015.704,988.456 2015.753,967.022 L2017.292,290.007 C2017.341,268.546 2031.108,251.343 2048.000,251.617 L2537.352,259.534 C2553.713,259.799 2566.936,277.138 2566.877,298.230 Z M2396.952,504.434 C2396.973,496.460 2391.947,489.942 2385.732,489.887 L2201.690,488.267 C2195.401,488.211 2190.277,494.682 2190.257,502.709 L2189.642,756.007 C2189.623,764.029 2194.714,770.542 2201.002,770.541 L2385.002,770.525 C2391.215,770.524 2396.274,764.053 2396.295,756.083 L2396.952,504.434 Z" />
    <path d="M2591.853,298.603 L2590.001,963.438 C2589.893,1002.261 2565.375,1033.985 2535.232,1034.241 L2046.189,1038.390 C2015.040,1038.654 1989.778,1006.749 1989.867,967.183 L1991.392,289.620 C1991.482,250.003 2016.905,218.274 2048.075,218.810 L2537.441,227.231 C2567.603,227.750 2591.961,259.732 2591.853,298.603 Z M2566.877,298.230 C2566.936,277.138 2553.713,259.799 2537.352,259.534 L2048.000,251.617 C2031.108,251.343 2017.341,268.546 2017.292,290.007 L2015.753,967.022 C2015.704,988.456 2029.383,1005.756 2046.265,1005.630 L2535.320,1001.983 C2551.671,1001.861 2564.980,984.660 2565.039,963.594 L2566.877,298.230 Z M2396.952,504.434 L2396.295,756.083 C2396.274,764.053 2391.215,770.524 2385.002,770.525 L2201.002,770.541 C2194.714,770.542 2189.623,764.029 2189.642,756.007 L2190.257,502.709 C2190.277,494.682 2195.401,488.211 2201.690,488.267 L2385.732,489.887 C2391.947,489.942 2396.973,496.460 2396.952,504.434 Z M2215.787,521.009 L2215.255,737.937 L2371.064,738.083 L2371.623,522.221 L2215.787,521.009 Z" />
    <path style="fill:white;" d="M3676.054,312.117 L3673.646,953.972 C3673.570,974.294 3661.166,990.883 3645.951,990.995 L3191.114,994.346 C3175.423,994.462 3162.727,977.779 3162.795,957.114 L3164.947,304.425 C3165.015,283.735 3177.829,267.144 3193.529,267.400 L3648.620,274.803 C3663.844,275.051 3676.130,291.771 3676.054,312.117 Z M3517.738,511.067 C3517.766,503.376 3513.097,497.091 3507.317,497.039 L3336.157,495.517 C3330.309,495.465 3325.538,501.706 3325.511,509.445 L3324.671,753.690 C3324.644,761.426 3329.371,767.706 3335.218,767.706 L3506.342,767.706 C3512.121,767.706 3516.834,761.466 3516.862,753.778 L3517.738,511.067 Z" />
    <path d="M3699.296,312.467 L3696.877,953.829 C3696.735,991.282 3673.885,1021.878 3645.835,1022.113 L3191.009,1025.931 C3162.057,1026.174 3138.612,995.406 3138.737,957.262 L3140.876,304.062 C3141.001,265.872 3164.663,235.271 3193.634,235.772 L3648.736,243.644 C3676.803,244.129 3699.437,274.969 3699.296,312.467 Z M3676.054,312.117 C3676.130,291.771 3663.844,275.051 3648.620,274.803 L3193.529,267.400 C3177.829,267.144 3165.015,283.735 3164.947,304.425 L3162.795,957.114 C3162.727,977.779 3175.423,994.462 3191.114,994.346 L3645.951,990.995 C3661.166,990.883 3673.570,974.294 3673.646,953.972 L3676.054,312.117 Z M3517.738,511.067 L3516.862,753.778 C3516.834,761.466 3512.121,767.706 3506.342,767.706 L3335.218,767.706 C3329.371,767.706 3324.644,761.426 3324.671,753.690 L3325.511,509.445 C3325.538,501.706 3330.309,495.465 3336.157,495.517 L3507.317,497.039 C3513.097,497.091 3517.766,503.376 3517.738,511.067 Z M3349.229,527.087 L3348.505,736.267 L3493.411,736.416 L3494.159,528.226 L3349.229,527.087 Z" />
    <path style="fill:white;" d="M2802.200,645.259 L2621.676,644.549 C2610.075,644.503 2600.683,632.284 2600.725,617.279 L2601.223,439.118 C2601.265,424.107 2610.727,412.028 2622.330,412.159 L2806.059,414.245 C2806.177,370.104 2806.262,331.568 2806.312,307.082 C2735.358,316.823 2671.748,320.965 2665.403,320.349 C2657.907,319.622 2653.012,316.048 2649.924,303.659 C2640.912,267.493 2615.712,135.541 2624.875,119.471 C2627.190,115.412 2628.688,109.837 2639.900,108.184 C2670.193,103.717 2750.392,103.540 2849.744,72.660 C3000.115,25.919 3014.917,4.918 3048.382,-12.750 C3051.700,-14.501 3058.300,-18.253 3064.473,-5.502 C3078.136,22.719 3121.879,147.069 3125.724,166.749 C3127.118,173.888 3131.376,192.624 3114.997,202.699 C3105.020,208.836 3070.474,235.502 2993.945,263.331 C2994.367,318.746 2995.636,369.427 2996.724,416.409 L3111.769,417.715 C3123.004,417.842 3132.082,429.926 3132.034,444.682 L3131.462,619.826 C3131.413,634.578 3122.259,646.517 3111.026,646.473 L2994.340,646.014 C2987.413,727.783 2970.192,800.983 2931.369,877.147 C2860.504,1016.171 2811.225,1042.093 2777.235,1075.326 C2764.032,1088.234 2748.680,1103.740 2727.871,1075.813 C2708.134,1049.325 2649.632,928.457 2649.632,928.457 C2649.632,928.457 2639.342,902.523 2657.311,886.497 C2745.832,807.556 2790.464,726.071 2802.200,645.259 Z" />
    <path d="M2769.725,677.170 L2621.586,676.740 C2596.226,676.666 2575.680,649.970 2575.771,617.159 L2576.266,438.856 C2576.357,406.033 2597.055,379.639 2622.421,379.953 L2781.508,381.922 C2781.543,367.727 2781.574,354.469 2781.601,342.498 C2720.144,349.993 2669.438,352.976 2663.729,352.428 C2654.553,351.547 2647.196,348.050 2640.958,341.855 C2635.117,336.055 2629.791,327.531 2626.250,313.331 C2618.677,282.970 2600.372,188.260 2598.216,142.935 C2597.195,121.476 2601.111,106.505 2604.755,100.122 C2607.063,96.077 2609.355,91.715 2613.474,87.517 C2617.969,82.935 2624.585,77.961 2636.776,76.176 C2666.649,71.803 2745.760,71.877 2843.748,41.523 C2991.589,-4.274 3006.132,-24.946 3039.036,-42.284 C3044.762,-45.300 3054.020,-48.636 3064.230,-44.295 C3070.625,-41.578 3078.182,-36.024 3084.845,-22.249 C3099.214,7.459 3145.018,138.460 3149.061,159.173 C3150.976,168.992 3153.923,189.789 3145.525,208.286 C3141.703,216.702 3135.647,225.118 3125.396,231.436 C3115.924,237.272 3084.951,261.046 3018.482,287.237 C3018.892,321.551 3019.586,354.009 3020.294,384.878 L3111.872,386.012 C3136.412,386.316 3156.221,412.719 3156.115,444.935 L3155.539,619.942 C3155.434,652.146 3135.457,678.233 3110.923,678.161 L3015.635,677.885 C3006.817,753.388 2988.265,822.754 2951.645,894.661 C2878.113,1039.046 2827.181,1066.270 2791.904,1100.806 C2779.619,1112.832 2765.347,1123.935 2749.546,1123.449 C2737.848,1123.090 2724.344,1117.480 2709.988,1098.236 C2689.505,1070.778 2628.528,945.678 2628.528,945.678 C2628.157,944.912 2627.811,944.124 2627.490,943.319 C2627.490,943.319 2607.545,891.904 2643.303,860.059 C2711.006,799.764 2751.685,738.716 2769.725,677.170 Z M2657.433,944.411 L2649.540,960.602 C2654.357,960.573 2658.974,958.742 2662.903,955.486 C2681.373,992.738 2714.078,1057.302 2727.871,1075.813 C2748.680,1103.740 2764.032,1088.234 2777.235,1075.326 C2811.225,1042.093 2860.504,1016.171 2931.369,877.147 C2970.192,800.983 2987.413,727.783 2994.340,646.014 L3111.026,646.473 C3122.259,646.517 3131.413,634.578 3131.462,619.826 L3132.034,444.682 C3132.082,429.926 3123.004,417.842 3111.769,417.715 L2996.724,416.409 C2995.636,369.427 2994.367,318.746 2993.945,263.331 C3070.474,235.502 3105.020,208.836 3114.997,202.699 C3131.376,192.624 3127.118,173.888 3125.724,166.749 C3121.879,147.069 3078.136,22.719 3064.473,-5.502 C3058.300,-18.253 3051.700,-14.501 3048.382,-12.750 C3014.917,4.918 3000.115,25.919 2849.744,72.660 C2750.392,103.540 2670.193,103.717 2639.900,108.184 C2628.688,109.837 2627.190,115.412 2624.875,119.471 C2615.712,135.541 2640.912,267.493 2649.924,303.659 C2653.012,316.048 2657.907,319.622 2665.403,320.349 C2671.748,320.965 2735.358,316.823 2806.312,307.082 C2806.262,331.568 2806.177,370.104 2806.059,414.245 L2622.330,412.159 C2610.727,412.028 2601.265,424.107 2601.223,439.118 L2600.725,617.279 C2600.683,632.284 2610.075,644.503 2621.676,644.549 L2802.200,645.259 C2790.464,726.071 2745.832,807.556 2657.311,886.497 C2639.342,902.523 2649.632,928.457 2649.632,928.457 C2649.632,928.457 2652.603,934.596 2657.433,944.411 Z" />
    <path style="fill:white;" d="M4223.214,320.352 L4220.542,950.608 C4220.458,970.563 4208.490,986.851 4193.819,986.959 L3755.400,990.189 C3740.279,990.300 3728.054,973.922 3728.131,953.637 L3730.566,312.938 C3730.643,292.628 3743.000,276.339 3758.129,276.585 L4196.784,283.721 C4211.461,283.960 4223.299,300.374 4223.214,320.352 Z M4070.474,515.729 C4070.505,508.178 4066.008,502.007 4060.435,501.958 L3895.456,500.491 C3889.819,500.441 3885.218,506.568 3885.188,514.166 L3884.243,753.947 C3884.213,761.541 3888.766,767.707 3894.401,767.707 L4059.347,767.707 C4064.918,767.707 4069.465,761.580 4069.496,754.032 L4070.474,515.729 Z" />
    <path d="M4245.624,320.689 L4242.942,950.470 C4242.785,987.247 4220.736,1017.287 4193.691,1017.515 L3755.281,1021.195 C3727.381,1021.429 3704.807,991.222 3704.949,953.779 L3707.372,312.588 C3707.514,275.100 3730.331,245.055 3758.247,245.538 L4196.913,253.126 C4223.974,253.594 4245.781,283.869 4245.624,320.689 Z M4223.214,320.352 C4223.299,300.374 4211.461,283.960 4196.784,283.721 L3758.129,276.585 C3743.000,276.339 3730.643,292.628 3730.566,312.938 L3728.131,953.637 C3728.054,973.922 3740.279,990.300 3755.400,990.189 L4193.819,986.959 C4208.490,986.851 4220.458,970.563 4220.542,950.608 L4223.214,320.352 Z M4070.474,515.729 L4069.496,754.032 C4069.465,761.580 4064.918,767.707 4059.347,767.707 L3894.401,767.707 C3888.766,767.707 3884.213,761.541 3884.243,753.947 L3885.188,514.166 C3885.218,506.568 3889.819,500.441 3895.456,500.491 L4060.435,501.958 C4066.008,502.007 4070.505,508.178 4070.474,515.729 Z M3908.038,531.481 L3907.225,736.842 L4046.899,736.986 L4047.734,532.580 L3908.038,531.481 Z" />
    <path style="fill:white;" d="M1967.184,17.885 C1967.002,99.651 1914.459,164.941 1849.589,163.721 C1784.455,162.495 1731.595,94.734 1731.761,12.366 C1731.927,-70.015 1785.071,-135.318 1850.220,-133.489 C1915.106,-131.667 1967.366,-63.892 1967.184,17.885 Z" />
    <path d="M1850.290,-166.522 C1929.508,-164.216 1993.355,-81.310 1993.130,18.494 C1992.905,118.280 1928.713,198.143 1849.518,196.734 C1769.931,195.318 1705.188,112.433 1705.389,11.747 C1705.590,-88.956 1770.679,-168.839 1850.290,-166.522 Z M1850.220,-133.489 C1785.115,-135.317 1731.927,-69.959 1731.761,12.366 C1731.595,94.679 1784.499,162.496 1849.589,163.721 C1914.415,164.940 1967.002,99.596 1967.184,17.885 C1967.366,-63.837 1915.062,-131.668 1850.220,-133.489 Z" />
  </g>
</svg>
