<?xml version="1.0" encoding="UTF-8" standalone="no"?>
<!DOCTYPE svg PUBLIC "-//W3C//DTD SVG 1.1//EN" "http://www.w3.org/Graphics/SVG/1.1/DTD/svg11.dtd">
<svg width="100%" height="100%" viewBox="0 0 3784 960" version="1.1" xmlns="http://www.w3.org/2000/svg" xmlns:xlink="http://www.w3.org/1999/xlink" xml:space="preserve" xmlns:serif="http://www.serif.com/" style="fill-rule:evenodd;clip-rule:evenodd;stroke-linejoin:round;stroke-miterlimit:2;">
    <rect id="Artboard1" x="0" y="0" width="3784" height="960" style="fill:none;"/>
    <path d="M666.002,137.753c5.764,-9.434 12.94,-18.388 21.924,-26.061c9.137,-7.804 39.168,-23.766 52.45,-28.096c37.407,-12.195 38.384,-6.731 85.965,-6.198c0.918,-7.195 2.219,-14.116 4.058,-18.76c4.594,-11.601 11.994,-19.455 19.79,-24.127c4.025,-2.412 12.223,-5.74 23.509,-7.18c18.583,-2.372 54.875,-2.074 59.309,-2.022c3.611,0.043 23.004,-9.486 37.391,-7.686c13.999,1.752 34.743,17.449 37.741,19.962c4.282,3.588 11.078,11.419 14.499,24.417c0.976,3.708 1.923,9.411 2.763,15.493c21.834,0.256 63.704,1.916 90.735,10.238c8.091,2.491 19.628,8.909 30.663,17.732c14.138,11.305 27.595,26.332 32.715,35.289c10.208,17.86 16.664,40.076 20.671,68.016c2.599,-13.088 5.711,-29.003 9.32,-48.413c2.944,-15.83 9.332,-45.342 18.82,-58.7c7.719,-10.868 17.521,-16.902 27.442,-19.391c0.64,-0.161 102.117,-1.604 113.259,-1.419c74.345,1.234 74.078,-0.858 98.812,1.752c11.79,1.244 20.484,5.301 27.382,10.614c11.448,8.818 19.227,23.335 21.91,45.507c0.123,1.015 0.542,11.251 1.026,27.3c14.831,-36.707 43.255,-64.27 90.142,-78.51c12.286,-3.732 49.106,-5.47 75.466,-6.253l0.74,-6.891c2.054,-19.123 12.873,-31.589 28.601,-38.547c13.968,-6.179 39.921,-4.519 40.334,-4.492c-0.135,-0.009 -2.974,-0.194 -3.375,-0.199c6.086,0.078 58.015,0.779 82.71,2.87c12.073,1.022 14.605,-6.577 17.787,-5.179c8.361,3.672 23.696,21.324 29.151,34.836c2.127,5.269 3.601,12.806 4.606,20.176c13.805,0.531 69.724,3.244 87.486,8.982c20.84,6.732 54.137,31.189 61.391,42.03c20.53,30.682 26.159,68.859 28.475,83.932c19.069,-59.368 17.405,-60.024 33.479,-98.805c13.828,-33.362 59.475,-33.309 59.475,-33.309c0,0 -0.886,-0.025 -1.211,-0.025c51.448,0.043 208.055,0.132 216.914,0.256c8.592,0.12 83.312,2.391 106.808,11.313c3.151,1.197 27.976,10.878 38.49,17.131c22.108,13.147 39.287,23.543 64.341,69.601c1.479,2.719 2.883,5.443 4.216,8.166c-0.302,-15.259 -0.513,-26.236 -0.6,-30.719c-0.061,-3.17 0.187,-25.978 6.16,-41.014c6.662,-16.771 19.018,-27.166 33.204,-30.758c2.089,-0.529 16.525,-1.682 35.973,-1.609c36.57,0.138 94.975,2.073 99.532,3.109c13.014,2.959 26.35,12.027 33.924,31.038c8.408,21.106 8.104,71.255 9.251,99.087c1.26,30.599 2.873,87.105 3.777,120.144c10.376,0.291 72.373,1.155 111.173,1.544c-1.528,-60.416 -1.099,-203.758 -0.835,-206.498c1.811,-18.791 5.591,-23.744 13.026,-30.836c13.734,-13.101 30.039,-14.2 33.894,-14.386c3.99,-0.193 105.286,-0.562 109.628,-0.248c34.12,2.467 48.149,23.542 53.091,47.169c2.114,10.104 1.579,25.838 1.483,28.219c0.389,9.049 -0.37,45.93 1.062,82.858c0.505,-17.412 3.283,23.097 8.963,-3.003c6.572,-30.204 15.212,-92.805 18.131,-97.718c16.946,-28.52 61.107,-55.575 95.956,-56.764c15.031,-0.513 34.369,-0.829 49.75,-1.015l18.085,-2.564c1.16,-21.392 -3.398,-37.547 21.521,-44.966c18.356,-5.465 53.386,-3.422 58.632,-3.078l25.772,-0.011l0.051,0c3.223,-0.088 25.128,-0.488 38.312,4.435c18.606,6.948 33.818,20.584 36.614,46.181c11.59,0.486 27.414,1.153 48.089,2.03c42.277,1.793 72.821,26.45 78.005,30.705c35.786,29.375 42.427,63.54 43.892,68.572c8.001,27.496 10.071,71.654 10.322,77.938c7.076,177.214 6.988,176.418 15.832,432.131c0.619,17.904 -0.202,17.205 -2.973,35.385c-0.682,4.472 -4.526,29.23 -21.53,52.28c-17.024,23.077 -43.715,36.854 -72.534,43.505c-33.268,7.677 -68.85,5.724 -83.192,5.785c-177.944,0.754 -236.565,0.929 -258.833,-4.212c-57.245,-13.216 -78.839,-40.782 -99.984,-81.502c-7.231,-13.925 -11.385,-35.173 -13.663,-51.872c0.137,14.475 -1.076,30.059 -10.291,58.39c-0.342,1.051 -0.73,2.086 -1.163,3.103c-11.977,28.106 -25.411,40.848 -44.174,54.497c-12.151,8.839 -30.801,16.092 -51.546,20.779c-37.444,8.46 -82.327,9.766 -85.071,10.005c-2.516,0.219 -15.482,1.139 -28.104,-2.443c-13.256,-3.762 -25.414,-11.899 -33.224,-24.815c-20.364,-33.678 -20.481,-48.714 -21.748,-59.15c-0.844,-6.952 14.116,15.279 11.891,-39.889c-1.554,-38.528 3.988,-62.237 26.312,-78.203c0.73,-0.522 2.884,-2.072 6.662,-3.831c1.303,-0.606 8.835,-5.415 12.377,-7.689c-0.215,-12.327 -0.823,-41.35 -1.314,-63.537c-66.696,-0.927 -95.641,-0.092 -110.312,-1.002c-1.052,-0.065 -2.071,-0.137 -3.056,-0.216c1.361,58.374 2.502,135.995 2.939,160.682c0.117,6.636 2.578,25.414 -0.608,42.325c-3.892,20.662 -14.7,38.601 -33.895,48.602c-5.613,2.925 -46.667,13.548 -63.258,15.65l-42.847,5.922l-0.047,0.007c-32.173,4.405 -47.296,-6.176 -58.16,-15.334c-23.017,-19.401 -30.273,-48.939 -31.031,-66.817c-0.392,-9.24 14.034,-26.098 13.354,-49.205c-6.328,12.051 -13.666,24.156 -20.631,33.351c-3.358,4.433 -22.995,30.172 -48.561,49.744c-52.719,40.359 -92.728,47.033 -116.398,52.646c-25.759,6.109 -92.798,-0.243 -126.402,-10.13c-56.593,-16.652 -86.892,-39.758 -93.525,-44.738c-11.21,-8.417 -49.053,-42.367 -65.457,-63.62c-18.225,-23.612 -16.79,-23.966 -31.481,-49.948c-9.585,-16.953 -17.697,-35.426 -24.501,-54.537c0.482,34.469 0.615,39.014 0.669,48.932c0.126,23.29 3.63,54.597 -15.928,98.891c-1.632,3.696 -9.286,21.735 -30.139,40.52c-27.869,25.105 -74.507,29.567 -81.436,30.007c-34.242,2.174 -135.977,2.268 -270.289,1.974c-5.702,-0.012 -33.127,-0.148 -61.524,-7.762c-22.374,-6 -44.453,-17.115 -60.958,-33.288c-30.047,-29.442 -43.36,-69.72 -44.042,-75.384c-9.039,34.567 -25.674,72.497 -28.741,77.867c-24.624,43.105 -60.522,71.644 -66.908,76.695c-27.522,21.768 -90.439,49.298 -126.037,53.546l-14.467,2.647c-0.375,0.069 -0.75,0.131 -1.127,0.188c-38.879,5.895 -56.216,-4.152 -79.929,-21.645c-10.702,-7.894 -30.377,-54.124 -35.095,-69.99c-4.472,-15.036 1.449,-13.881 1.313,-20.415c-0.024,-1.149 12.881,-21.676 12.792,-25.12c-24.86,28.964 -51.263,34.192 -79.063,39.96c-17.932,3.72 -110.224,4.065 -145.222,4.183c-12.166,0.041 -141.844,0.43 -152.076,-0.106c-9.844,-0.515 -59.492,-1.974 -103.694,-33.908c-19.542,-14.118 -45.93,-55.693 -50.1,-96.19c-1.361,-13.224 -1.724,-55.937 -1.76,-93.519c-3.795,12.444 -13.622,41.307 -32.359,71.756c-3.918,6.367 -34.026,54.47 -55.496,75.186c-76.122,73.447 -162.272,74.566 -170.897,75.228c-19.857,1.523 -149.345,1.947 -162.333,1.982c-6.181,0.017 -58.048,4.298 -90.6,-4.023c-29.832,-7.626 -47.759,-26.105 -51.025,-47.475c-6.973,-45.633 -6.778,-96.62 -4.81,-103.644c2.522,-8.997 16.311,-63.022 26.612,-69.659c4.523,-2.914 11.142,-5.255 17.497,-7.009c0.401,-30.535 1.002,-79.345 1.076,-85.346l1.667,-135.392c0.296,-24.077 0.478,-66.755 0.567,-92.927c-4.925,-1.109 -9.452,-2.189 -12.101,-2.969c-9.958,-2.929 -16.1,-7.563 -18.77,-10.02c-6.558,-6.036 -10.171,-11.76 -12.61,-18.574c-1.95,-5.446 -3.379,-12.139 -2.286,-22.283c0.86,-7.988 5.041,-23.956 11.906,-62.3c0.38,-2.12 15.809,-64.398 16.169,-65.34c7.526,-19.696 14.808,-28.677 22.644,-34.352c8.317,-6.023 19.406,-10.282 41.307,-10.156c205.419,1.184 205.339,1.013 223.192,1.342c65.845,1.216 217.27,2.331 219.111,2.424c32.296,1.622 49.407,20.494 57.671,43.671c1.809,5.073 2.995,10.795 3.759,16.504Zm189.28,468.43c5.673,0.11 10.291,0.19 11.212,0.178c27.613,-0.372 87.068,-1.161 122.244,-1.627c0.051,-29.425 0.122,-87.315 -0.026,-125.293c-0.049,-12.534 -0.514,-137.466 -0.739,-170.623c-32.18,-0.252 -96.142,-0.418 -131.794,-0.461c-0.438,42.509 -0.986,118.37 -1.084,149.693c-0.205,65.278 0.009,118.615 0.187,148.133Zm-520.34,0.961c7.79,-0.093 14.867,-0.258 17.001,-0.464c15.361,-1.484 31.53,-3.513 45.584,-13.645c14.562,-10.498 25.787,-29.273 34.125,-60.573c12.913,-48.471 11.178,-106.237 11.972,-225.29c-28.213,-0.295 -69.337,-0.746 -81.318,-0.986c-1.771,-0.036 -13.046,0.099 -24.433,0.25c-0.456,21.719 -1.046,49.13 -1.227,54.638c-0.271,8.216 -0.873,114.428 -1.424,180.695l-0.001,0.094c-0.047,4.319 -0.183,39.448 -0.279,65.283Zm868.509,104.131c6.244,-2.607 13.591,-4.986 21.895,-7.018c16.353,-4.003 41.826,-9.025 52.833,-40.454c16.769,-47.883 19.92,-116.878 20.44,-127.169l0.023,-0.411c1.425,-23.14 0.39,-153.48 0.642,-202.631c0.051,-9.878 -0.125,-17.06 -0.032,-22.94c-18.412,-0.024 -39.515,-0.332 -53.712,-1.427c-13.456,-1.037 -23.29,-3.734 -27.523,-5.692c-4.875,-2.255 -8.811,-4.78 -12.071,-7.56c0.287,15.501 0.367,32.096 0.322,49.87c-0.472,184.901 3.002,293.781 -1.888,355.36c-0.276,3.477 -0.586,6.833 -0.93,10.07Zm862.345,-394.832c2.387,-4.89 5.009,-9.688 7.887,-14.316c-2.553,-1.893 -4.683,-3.879 -6.39,-5.788c-0.696,-0.779 -1.356,-1.566 -1.982,-2.357c0.159,6.808 0.321,14.274 0.485,22.46Zm528.32,295.679c-2.574,-96.792 -5.281,-206.198 -5.715,-223.776c-0.22,-8.911 -0.444,-18.266 -0.669,-27.892c-4.448,3.004 -9.507,5.29 -15.16,6.797c-9.724,2.592 -118.591,5.239 -128.128,3.159c-7.934,-1.731 -15.883,-5.781 -22.706,-11.669c-8.544,-7.374 -15.043,-18.006 -16.131,-19.874c-0.515,-0.885 -9.082,-15.276 -12.71,-21.37c-21.916,-0.246 -92.091,0.509 -110.596,0.696l-1.284,3.221c-13.222,33.242 -14.324,43.026 -20.15,78.952c-7.931,48.903 -0.1,100.294 1.182,108.913c0.738,4.957 4.665,30.499 22.777,58.358c11.577,17.807 22.902,26.239 25.36,27.998c39.488,28.242 83.066,16.507 104.95,-1.518c14.51,-11.951 27.778,-30.822 38.206,-41.689c11.693,-12.185 23.545,-18.226 31.845,-19.956c26.732,-5.57 44.198,11.376 50.165,18.635c21.847,24.903 21.174,25.132 44.621,48.942c5.634,5.722 10.397,9.151 14.143,12.074Zm-871.253,-299.409c0.504,65.173 1.948,229.297 2.576,292.722c33.795,0.472 91.178,0.833 127.324,0.662c-0.001,-20.264 -0.022,-48.076 -0.115,-58.437c-0.116,-12.816 -2.287,-129.345 -3.481,-235.088c-35.86,-0.25 -97.434,0.003 -126.304,0.14Zm1621.667,5.814l5.267,163.585l0.001,0.034c0.284,9.065 2.631,84.367 4.02,125.112c36.105,0.056 92.252,-0.066 125.852,-0.127c-2.192,-65.218 -7.621,-225.993 -9.765,-287.656c-13.633,0.066 -36.593,0.093 -69.771,-0.262c-29.758,-0.318 -36.356,-0.508 -55.603,-0.687Z"/>
    <g>
        <path d="M3170.141,562.023c-0.387,-9.491 -4.215,-258.877 1.507,-324.053c2.508,-28.572 2.564,-39.268 7.961,-60.078c6.069,-23.401 12.544,-30.207 16.298,-35.961c12.624,-19.349 43.191,-37.203 68.209,-38.152c80.259,-3.042 81.286,1.144 86.751,-3.141c4.273,-3.351 2.147,-22.246 3.289,-34.814c1.479,-16.279 18.028,-14.319 61.87,-13.749c25.818,0.336 25.802,-0.23 28.045,-0.178c31.509,0.735 37.841,0.985 38.484,18.192c0.732,19.6 -0.379,25.85 4.242,29.552c4.152,3.327 35.575,1.883 81.159,3.482c21.391,0.75 43.254,10.634 57,21.641c25.371,20.315 27.979,38.192 30.94,49.265c7.92,29.618 6.551,67.344 6.554,67.975c0.708,212.034 0.432,211.962 -0.052,423.978c-0.032,14.102 -0.966,13.981 -3.716,27.792c-0.601,3.019 -3.88,19.485 -16.39,34.818c-29.516,36.176 -86.758,32.911 -130.292,33.013c-230.586,0.54 -236.052,0.857 -256.003,-3.589c-42.638,-9.501 -57.822,-27.528 -74.807,-60.59c-8.267,-16.092 -10.142,-49.018 -10.329,-59.41c-1.021,-56.88 -0.815,-69.915 -0.719,-75.994Zm144.304,-112.014c-0.065,-15.043 0.012,-15.034 -0.046,-188.036c-0.002,-6.868 -0.754,-8.512 5.832,-10.39c0.291,-0.083 0.299,-0.042 11.784,-0.019c40.062,0.08 39.962,0.276 80,0.532c80.968,0.518 80.957,-0.269 87.996,-0.153c15.472,0.254 20.498,-0.799 20.93,10.013c0.165,4.141 -0.216,334.922 -0.247,336.076c-0.278,10.123 -5.794,9.496 -12.714,9.48c-52.396,-0.121 -105.844,0.443 -175.985,0.091c-12.105,-0.061 -17.006,2.509 -17.366,-9.55c-0.281,-9.399 -0.19,-136.201 -0.182,-148.045Z" style="fill:rgb(254,254,254);"/>
        <path d="M3316.617,64.991c0.058,-0.924 0.123,-1.785 0.193,-2.56c1.087,-11.961 5.246,-20.917 11.122,-28.095c5.793,-7.077 13.633,-12.851 24.856,-16.349c11.383,-3.548 31.51,-3.828 63.726,-3.408c26.174,0.34 26.158,-0.224 28.432,-0.171c17.109,0.399 28.438,1.195 35.93,3.043c14.961,3.691 23.815,10.944 30.115,20.271c4.303,6.371 7.709,14.704 8.764,26.583c13.751,0.286 31.944,0.726 49.515,1.342c29.669,1.041 60.058,14.579 79.125,29.846c35.57,28.482 39.577,53.325 43.728,68.85c9.039,33.799 7.824,76.818 7.826,77.538c0.708,212.139 0.432,212.067 -0.052,424.189c-0.041,17.758 -0.975,17.637 -4.438,35.029c-0.884,4.44 -5.714,28.653 -24.112,51.202c-16.987,20.819 -39.944,33.25 -65.88,39.853c-29.995,7.636 -64.405,6.885 -93.379,6.953c-238.022,0.557 -243.653,0.102 -264.247,-4.486c-56.738,-12.643 -77.404,-36.06 -100.007,-80.056c-10.589,-20.612 -14.228,-62.563 -14.467,-75.874c-0.994,-55.404 -0.834,-69.889 -0.733,-76.441l-0,-0.009c-0.552,-21.902 -3.991,-263.198 1.658,-327.549c2.766,-31.505 3.067,-43.266 9.018,-66.213c7.93,-30.578 16.285,-39.519 21.19,-47.038c18.19,-27.881 62.146,-53.767 98.195,-55.134c23.286,-0.883 41.091,-1.221 53.922,-1.315Zm-146.475,497.033c-0.096,6.079 -0.302,19.113 0.719,75.994c0.187,10.392 2.062,43.319 10.329,59.41c16.986,33.062 32.169,51.089 74.807,60.59c19.95,4.445 25.417,4.129 256.003,3.589c43.534,-0.102 100.776,3.162 130.292,-33.013c12.51,-15.332 15.789,-31.798 16.39,-34.818c2.75,-13.811 3.684,-13.69 3.716,-27.792c0.484,-212.016 0.759,-211.944 0.052,-423.978c-0.002,-0.63 1.367,-38.357 -6.554,-67.975c-2.961,-11.073 -5.569,-28.95 -30.94,-49.265c-13.746,-11.007 -35.609,-20.891 -57,-21.641c-45.584,-1.599 -77.007,-0.155 -81.159,-3.482c-4.621,-3.703 -3.51,-9.952 -4.242,-29.552c-0.643,-17.207 -6.974,-17.457 -38.484,-18.192c-2.243,-0.052 -2.227,0.514 -28.045,0.178c-43.842,-0.57 -60.391,-2.53 -61.87,13.749c-1.142,12.568 0.985,31.463 -3.289,34.814c-5.465,4.285 -6.493,0.099 -86.751,3.141c-25.018,0.948 -55.585,18.803 -68.209,38.152c-3.754,5.754 -10.229,12.56 -16.298,35.961c-5.397,20.811 -5.452,31.506 -7.961,60.078c-5.722,65.177 -1.894,314.562 -1.507,324.053Zm144.304,-112.014c-0.065,-15.043 0.012,-15.034 -0.046,-188.036c-0.002,-6.868 -0.754,-8.512 5.832,-10.39c0.291,-0.083 0.299,-0.042 11.784,-0.019c40.062,0.08 39.962,0.276 80,0.532c80.968,0.518 80.957,-0.269 87.996,-0.153c15.472,0.254 20.498,-0.799 20.93,10.013c0.165,4.141 -0.216,334.922 -0.247,336.076c-0.278,10.123 -5.794,9.496 -12.714,9.48c-52.396,-0.121 -105.844,0.443 -175.985,0.091c-12.105,-0.061 -17.006,2.509 -17.366,-9.55c-0.281,-9.399 -0.19,-136.201 -0.182,-148.045Zm37.462,-160.882c0.041,145.742 -0.024,146.521 0.038,160.719l0,0.19c-0.006,8.703 -0.066,79.969 0.017,120.146c50.058,0.142 91.652,-0.141 131.29,-0.181c0.086,-62.845 0.26,-218.244 0.258,-280.337c-10.877,0.12 -31.028,0.193 -71.735,-0.068c-31.891,-0.204 -38.264,-0.37 -59.868,-0.469Z"/>
        <path d="M3086.013,709.179c-9.276,19.399 -16.626,26.264 -33.479,37.671c-28.165,19.065 -79.897,19.521 -120.559,22.813c-4.702,0.381 -19.618,1.969 -25.995,-8.77c-2.704,-4.553 -1.462,-4.974 -2.552,-78.887c-0.574,-38.934 3.56,-39.09 12.088,-44.791c14.63,-9.78 35.793,-13.453 36.447,-35.216c0.205,-6.822 0.794,-94.488 0.579,-96.066c-1.309,-9.61 -14.668,-7.405 -16.547,-7.434c-131.955,-2.04 -137.382,2.866 -149.247,-7.016c-16.415,-13.672 -18.735,-24.552 -22.877,-24.693c-4.249,-0.145 -3.94,6.55 -3.909,7.206c1.468,31.73 0.523,79.245 -0.424,216c-0.26,37.521 2.232,46.228 -15.945,55.114c-6.303,3.081 -36.492,9.492 -51.812,11.25c-21.997,2.523 -21.883,2.865 -43.778,5.676c-36.402,4.675 -30.429,-17.072 -30.998,-44.057c-0.999,-47.419 -1.724,-331.178 -1.797,-359.977c-0.209,-81.917 0.168,-202.397 0.223,-219.997c0.014,-4.466 -1.26,-30.668 12.109,-33.959c6.013,-1.48 114.07,-0.376 120.643,1.025c13.873,2.957 10.523,10.002 11.989,92.927c1.567,88.629 -0.824,142.1 1.363,147.33c1.826,4.368 6.522,3.853 34.46,4.793c8.764,0.295 144.076,1.878 148.247,1.283c6.836,-0.976 6.892,-5.438 7.008,-9.443c0.371,-12.795 -0.35,-214.299 0.385,-219.998c2.114,-16.383 14.409,-17.016 16.297,-17.113c4.082,-0.21 101.411,-1.302 108.05,-0.879c20.462,1.305 18.708,8.377 19.193,38.042c0.934,57.053 1.41,199.965 2.791,203.27c3.852,9.218 11.985,6.571 16.533,25.092c10.487,42.697 9.918,110.047 8.596,115.357c-3.837,15.409 -24.348,7.915 -27.079,16.275c-2.563,7.845 1.519,8.142 0.065,147.993c-0.252,24.255 0.757,30.077 -10.071,59.179Z" style="fill:rgb(254,254,254);"/>
        <path d="M2798.506,312.677c11.387,0.272 78.14,1.283 115.403,1.608c0.107,-58.743 -0.066,-192.455 0.536,-197.121c2.381,-18.448 10.483,-29.249 18.326,-36.25c13.677,-12.209 29.529,-13.324 33.236,-13.514c4.245,-0.218 105.46,-1.293 112.363,-0.852c15.059,0.96 24.756,4.875 31.625,9.497c10.315,6.94 17.391,16.373 20.616,31.465c1.559,7.294 1.802,18.045 2.061,33.891c0.767,46.833 1.21,151.798 2.115,188.979c5.485,6.215 12.562,16.517 16.132,31.051c12.115,49.327 10.095,127.229 8.567,133.363c-3.433,13.786 -15.129,23.517 -26.216,29.871c0.503,19.05 1.024,57.088 0.311,125.726c-0.306,29.469 0.733,36.509 -12.423,71.866c-0.392,1.053 -0.83,2.087 -1.315,3.1c-12.889,26.955 -22.872,36.698 -46.29,52.549c-32.501,22 -91.633,25.338 -138.555,29.136c-11.475,0.929 -45.701,-0.794 -61.263,-27c-3.295,-5.549 -5.512,-9.473 -6.611,-20.514c-0.658,-6.613 -0.398,-23.013 -1.194,-76.968c-0.528,-35.801 4.673,-49.791 9.236,-57.475c5.048,-8.501 10.832,-13.245 19.507,-19.045c5.191,-3.47 14.646,-8.545 19.898,-11.301c0.137,-12.001 0.327,-38.199 0.434,-59.02c-65.609,-0.756 -95.183,0.204 -110.647,-0.64c-2.196,-0.12 -4.253,-0.271 -6.187,-0.452c-0.125,33.639 -0.624,81.72 -1.136,155.629c-0.122,17.58 0.132,29.486 -0.842,38.121c-1.413,12.526 -5.001,21.607 -10.359,29.346c-5.48,7.916 -13.138,14.899 -25.774,21.077c-7.811,3.818 -45.024,12.638 -64.007,14.815c-21.745,2.495 -21.632,2.836 -43.275,5.615c-22.724,2.918 -37.179,-1.646 -46.779,-7.434c-13.533,-8.158 -21.655,-20.345 -24.913,-36.93c-1.894,-9.64 -1.283,-22.297 -1.574,-36.098c-1.001,-47.511 -1.732,-331.817 -1.806,-360.671c-0.209,-81.997 0.168,-202.593 0.223,-220.21c0.016,-5.026 0.288,-26.98 7.06,-41.632c6.843,-14.807 18.38,-24.88 33.585,-28.623c6.849,-1.686 129.938,-0.834 137.425,0.762c10.794,2.301 18.309,6.506 24.429,12.313c5.996,5.69 11.525,13.455 14.285,26.958c2.353,11.509 1.999,35.79 2.952,89.669c0.841,47.604 0.912,89.686 0.838,115.341Zm287.507,396.502c10.828,-29.102 9.819,-34.923 10.071,-59.179c1.454,-139.851 -2.628,-140.148 -0.065,-147.993c2.731,-8.36 23.242,-0.866 27.079,-16.275c1.322,-5.309 1.891,-72.659 -8.596,-115.357c-4.549,-18.52 -12.682,-15.874 -16.533,-25.092c-1.381,-3.305 -1.857,-146.216 -2.791,-203.27c-0.486,-29.665 1.269,-36.737 -19.193,-38.042c-6.638,-0.423 -103.968,0.669 -108.05,0.879c-1.888,0.097 -14.183,0.73 -16.297,17.113c-0.735,5.699 -0.014,207.203 -0.385,219.998c-0.116,4.006 -0.172,8.468 -7.008,9.443c-4.17,0.595 -139.483,-0.988 -148.247,-1.283c-27.938,-0.94 -32.634,-0.425 -34.46,-4.793c-2.187,-5.23 0.204,-58.701 -1.363,-147.33c-1.466,-82.925 1.884,-89.97 -11.989,-92.927c-6.573,-1.401 -114.63,-2.506 -120.643,-1.025c-13.369,3.291 -12.095,29.493 -12.109,33.959c-0.055,17.6 -0.432,138.079 -0.223,219.997c0.074,28.798 0.798,312.558 1.797,359.977c0.569,26.984 -5.404,48.731 30.998,44.057c21.894,-2.812 21.78,-3.153 43.778,-5.676c15.319,-1.757 45.509,-8.168 51.812,-11.25c18.177,-8.886 15.685,-17.592 15.945,-55.114c0.947,-136.755 1.892,-184.27 0.424,-216c-0.03,-0.655 -0.34,-7.351 3.909,-7.206c4.141,0.141 6.461,11.021 22.877,24.693c11.864,9.882 17.292,4.976 149.247,7.016c1.879,0.029 15.238,-2.176 16.547,7.434c0.215,1.578 -0.374,89.243 -0.579,96.066c-0.654,21.763 -21.817,25.436 -36.447,35.216c-8.528,5.701 -12.663,5.858 -12.088,44.791c1.09,73.913 -0.153,74.333 2.552,78.887c6.377,10.739 21.293,9.15 25.995,8.77c40.663,-3.291 92.394,-3.747 120.559,-22.813c16.853,-11.408 24.203,-18.272 33.479,-37.671Z"/>
        <path d="M2096.041,252.178c-1.179,-0.151 -11.9,0.67 -17.206,-5.089c-0.533,-0.579 -3.491,-3.79 -3.947,-9.014c-0.327,-3.748 2.784,-19.652 5.675,-27.878c24.665,-70.178 23.828,-70.468 35.36,-96.233c5.115,-11.428 10.949,-9.976 24.095,-10.037c210.633,-0.972 210.61,-1.021 219.974,-0.946c36.565,0.293 71.149,-0.686 95.604,8.138c24.015,8.666 30.493,12.363 32.976,13.78c18.014,10.282 29.791,16.103 50.38,53.673c16.092,29.365 22.277,66.008 23.323,83.603c1.918,32.266 1.57,38.208 -9.92,41.156c-9.53,2.445 -103.233,4.938 -112.422,3.043c-1.537,-0.317 -7.42,-1.53 -14.381,-13.337c-13.088,-22.198 -17.17,-36.241 -33.662,-38.255c-5.985,-0.731 -117.643,0.579 -127.872,0.699c-18.547,0.218 -21.744,0.297 -32.93,26.145c-13.163,30.418 -14.367,32.181 -24.082,84.185c-11.17,59.792 -2.045,108.2 -0.903,116.454c0.832,6.011 5.117,36.987 27.467,70.709c16.997,25.644 31.564,34.56 34.658,36.701c58.522,40.481 121.353,20.942 152.273,-2.996c37.826,-29.284 38.164,-48.648 55.628,-52.121c8.56,-1.703 11.73,3.479 13.756,5.734c22.688,25.248 22.145,25.664 46.268,49.555c13.817,13.684 25.084,18.53 22.701,36.012c-2.12,15.551 -24.431,46.451 -31.76,55.425c-3.003,3.677 -20.377,24.952 -42.83,41.069c-43.695,31.364 -70.208,36.503 -104.16,44.092c-24.887,5.563 -80.633,-1.71 -107.831,-9.433c-49.392,-14.025 -75.689,-33.15 -81.489,-37.368c-5.713,-4.155 -39.698,-31.594 -57.757,-54.42c-18.195,-23 -18.635,-27.49 -28.006,-43.771c-46.407,-80.622 -52.115,-192.375 -45.556,-231.536c3.757,-22.431 5.015,-60.55 31.093,-96.903c11.95,-16.657 43.617,-35.885 43.675,-36.171c0.201,-0.995 -1.914,-5.352 -2.618,-5.627c-1.014,-0.396 -6.995,0.284 -7.6,0.353c-13.973,1.588 -13.967,0.264 -27.975,0.61Z" style="fill:rgb(254,254,254);"/>
        <path d="M2056.198,276.81c-1.825,-1.308 -3.495,-2.742 -4.942,-4.312c-1.846,-2.003 -12.148,-13.084 -13.725,-31.162c-0.509,-5.828 3.158,-30.781 7.654,-43.573c25.412,-72.303 24.629,-72.573 36.511,-99.119c4.577,-10.226 10.043,-16.495 15.537,-20.965c9.8,-7.973 21.63,-11.154 42.613,-11.251c211.087,-0.974 211.063,-1.021 220.447,-0.945c41.358,0.331 80.371,0.382 108.032,10.363c28.35,10.23 35.906,14.813 38.837,16.486c23.004,13.13 38.385,20.242 64.677,68.22c19.14,34.926 26.627,78.472 27.871,99.4c1.23,20.693 1.03,33.11 -0.531,40.851c-1.965,9.744 -5.712,16.669 -10.235,22.194c-6.241,7.623 -14.471,13.376 -27.27,16.659c-10.962,2.812 -118.746,5.626 -129.316,3.446c-3.911,-0.807 -21.393,-0.97 -39.109,-31.017c-4.118,-6.983 -8.942,-15.404 -11.698,-20.237c-21.999,-0.188 -97.506,0.874 -114.429,1.098c-0.558,1.189 -1.114,2.411 -1.618,3.575c-11.905,27.51 -12.849,29.146 -21.635,76.178c-10.017,53.617 -1.643,97.027 -0.619,104.429c0.649,4.692 4.135,28.812 21.579,55.131c12.224,18.444 22.508,25.038 24.734,26.577c41.498,28.706 86.058,15.166 107.983,-1.808c24.228,-18.757 31.355,-33.344 39.107,-41.332c9.212,-9.491 18.871,-15.273 32.162,-17.917c29.856,-5.938 41.899,9.586 48.964,17.449c21.957,24.435 21.416,24.853 44.762,47.974c24.519,24.283 37.699,36.7 33.47,67.723c-2.792,20.48 -30.219,62.26 -39.871,74.079c-3.501,4.287 -23.828,29.021 -50.009,47.813c-49.488,35.522 -79.394,41.629 -117.847,50.224c-29.118,6.508 -94.433,-0.92 -126.254,-9.956c-56.628,-16.08 -86.652,-38.278 -93.302,-43.114c-6.447,-4.689 -44.732,-35.722 -65.11,-61.481c-20.123,-25.437 -20.733,-30.324 -31.097,-48.329c-51.383,-89.266 -57.303,-213.079 -50.041,-256.438c4.187,-24.997 6.942,-66.299 33.717,-106.912Zm39.844,-24.631c14.008,-0.346 14.002,0.979 27.975,-0.61c0.605,-0.069 6.586,-0.749 7.6,-0.353c0.704,0.275 2.819,4.631 2.618,5.627c-0.058,0.286 -31.726,19.513 -43.675,36.171c-26.079,36.353 -27.337,74.472 -31.093,96.903c-6.559,39.16 -0.851,150.914 45.556,231.536c9.371,16.28 9.811,20.771 28.006,43.771c18.058,22.826 52.043,50.265 57.757,54.42c5.8,4.218 32.097,23.343 81.489,37.368c27.197,7.723 82.944,14.995 107.831,9.433c33.952,-7.589 60.465,-12.727 104.16,-44.092c22.454,-16.117 39.828,-37.392 42.83,-41.069c7.329,-8.974 29.639,-39.874 31.76,-55.425c2.384,-17.482 -8.884,-22.328 -22.701,-36.012c-24.123,-23.89 -23.58,-24.306 -46.268,-49.555c-2.026,-2.254 -5.196,-7.436 -13.756,-5.734c-17.464,3.474 -17.802,22.837 -55.628,52.121c-30.92,23.938 -93.751,43.478 -152.273,2.996c-3.094,-2.14 -17.661,-11.057 -34.658,-36.701c-22.351,-33.722 -26.636,-64.698 -27.467,-70.709c-1.142,-8.254 -10.267,-56.661 0.903,-116.454c9.715,-52.004 10.919,-53.767 24.082,-84.185c11.186,-25.848 14.383,-25.928 32.93,-26.145c10.229,-0.12 121.887,-1.43 127.872,-0.699c16.492,2.014 20.574,16.057 33.662,38.255c6.961,11.806 12.844,13.02 14.381,13.337c9.189,1.895 102.892,-0.598 112.422,-3.043c11.491,-2.948 11.838,-8.891 9.92,-41.156c-1.046,-17.595 -7.23,-54.238 -23.323,-83.603c-20.589,-37.57 -32.366,-43.391 -50.38,-53.673c-2.483,-1.417 -8.961,-5.115 -32.976,-13.78c-24.455,-8.824 -59.039,-7.845 -95.604,-8.138c-9.364,-0.075 -9.34,-0.026 -219.974,0.946c-13.147,0.061 -18.98,-1.392 -24.095,10.037c-11.532,25.766 -10.696,26.056 -35.36,96.233c-2.891,8.226 -6.002,24.13 -5.675,27.878c0.456,5.224 3.414,8.435 3.947,9.014c5.306,5.759 16.026,4.938 17.206,5.089Z"/>
        <path d="M1522.159,229.996c-1.847,-75.918 29.88,-109.651 77.879,-123.87c25.173,-7.457 93.531,-3.339 98.937,-5.989c5.501,-2.696 3.148,-23.935 4.88,-38.157c1.388,-11.395 10.299,-9.72 28.153,-9.608c82.534,0.517 82.884,-0.299 92.793,3.837c9.5,3.966 7.048,11.953 7.002,33.791c-0.032,15.051 6.89,12.041 32.186,12.603c59.763,1.328 60.024,0.422 80.283,6.614c13.961,4.267 36.07,17.692 41.887,26.167c16.798,24.474 17.72,41.262 22.486,70.508c0.535,3.282 2.49,3.243 1.963,204.102c-0.541,206.093 -0.15,206.069 -0.309,223.988c-0.332,37.475 1.275,48.264 -13.946,80.2c-1.176,2.467 -6.789,14.244 -21.382,26.637c-5.858,4.974 -25.579,17.517 -59.126,19.495c-21.391,1.261 -37.901,2.235 -267.846,1.364c-7.95,-0.03 -66.769,-0.253 -95.208,-28.495c-13.914,-13.818 -26.145,-50.229 -27.461,-55.54c-4.483,-18.09 -4.076,-58.527 -4.025,-63.627c0.977,-97.055 0.846,-356.991 0.855,-384.019Zm165.82,22.404c13.783,-0.114 158.681,-1.313 172.292,-0.211c0.752,0.061 6.478,0.525 7.372,5.875c0.021,0.124 0.012,0.125 -0.007,11.94c-0.221,133.306 0.745,218.342 0.669,243.996c-0.255,86.157 2.003,89.601 -4.397,91.763c-5.266,1.779 -179.958,0.334 -191.81,-0.619c-6.392,-0.514 -6.935,-6.447 -7.009,-7.251c-0.177,-1.93 -0.222,-327.349 -0.047,-335.852c0.097,-4.693 -0.717,-5.226 2.796,-8.283c1.942,-1.69 16.905,-1.344 20.142,-1.358Z" style="fill:rgb(254,254,254);"/>
        <path d="M1484.659,230.451l-0,-0.02c-1.086,-47.813 9.671,-82.056 26.961,-106.918c18.597,-26.741 45.191,-43.692 77.767,-53.343c15.241,-4.515 51.541,-6.035 76.681,-6.54c0.162,-2.304 0.349,-4.431 0.563,-6.185c1.119,-9.188 4.078,-16.055 7.669,-21.5c5.734,-8.692 13.492,-14.773 24.155,-18.283c7.198,-2.369 18.274,-2.887 33.788,-2.79c95.282,0.597 95.566,1.956 107.005,6.731c19.342,8.075 27.597,19.473 29.913,40.739c0.098,0.899 0.171,1.854 0.224,2.871c62.812,1.388 63.543,1.324 85.847,8.141c20.945,6.401 53.117,28.094 61.844,40.809c20.505,29.874 22.762,49.997 28.58,85.697c0.551,3.381 2.994,3.336 2.451,210.233c-0.542,206.308 -0.151,206.285 -0.31,224.222c-0.398,44.931 0.657,57.711 -17.593,96.002c-1.716,3.601 -9.657,20.996 -30.961,39.087c-8.091,6.871 -34.852,25.614 -81.192,28.346c-21.578,1.272 -38.233,2.307 -270.195,1.429c-5.624,-0.021 -32.831,-0.196 -60.947,-7.467c-22.271,-5.76 -44.607,-16.093 -60.544,-31.919c-18.449,-18.321 -35.69,-66.085 -37.436,-73.128c-5.148,-20.771 -5.183,-67.169 -5.124,-73.025c0.971,-96.428 0.845,-353.792 0.853,-383.187Zm37.5,-0.455c-0.01,27.028 0.122,286.964 -0.855,384.019c-0.051,5.1 -0.458,45.537 4.025,63.627c1.316,5.312 13.548,41.723 27.461,55.54c28.439,28.242 87.257,28.465 95.208,28.495c229.945,0.871 246.455,-0.103 267.846,-1.364c33.547,-1.978 53.268,-14.521 59.126,-19.495c14.594,-12.393 20.207,-24.17 21.382,-26.637c15.221,-31.937 13.614,-42.726 13.946,-80.2c0.159,-17.918 -0.232,-17.895 0.309,-223.988c0.527,-200.859 -1.428,-200.82 -1.963,-204.102c-4.767,-29.246 -5.688,-46.034 -22.486,-70.508c-5.817,-8.475 -27.926,-21.901 -41.887,-26.167c-20.259,-6.192 -20.52,-5.286 -80.283,-6.614c-25.296,-0.562 -32.218,2.448 -32.186,-12.603c0.047,-21.838 2.498,-29.825 -7.002,-33.791c-9.909,-4.137 -10.258,-3.32 -92.793,-3.837c-17.853,-0.112 -26.765,-1.788 -28.153,9.608c-1.733,14.223 0.62,35.461 -4.88,38.157c-5.406,2.65 -73.764,-1.469 -98.937,5.989c-47.999,14.219 -79.726,47.952 -77.879,123.87Zm165.82,22.404c13.783,-0.114 158.681,-1.313 172.292,-0.211c0.752,0.061 6.478,0.525 7.372,5.875c0.021,0.124 0.012,0.125 -0.007,11.94c-0.221,133.306 0.745,218.342 0.669,243.996c-0.255,86.157 2.003,89.601 -4.397,91.763c-5.266,1.779 -179.958,0.334 -191.81,-0.619c-6.392,-0.514 -6.935,-6.447 -7.009,-7.251c-0.177,-1.93 -0.222,-327.349 -0.047,-335.852c0.097,-4.693 -0.717,-5.226 2.796,-8.283c1.942,-1.69 16.905,-1.344 20.142,-1.358Zm14.387,315.998c34.277,0.487 92.324,0.875 128.359,0.681c-0.003,-13.661 0.012,-32.412 0.08,-55.191c0.072,-24.394 -0.798,-102.491 -0.693,-224.735c-36.529,-0.1 -98.988,0.384 -127.657,0.624c-0.096,62.694 -0.145,216.96 -0.088,278.62Z"/>
        <path d="M1313.81,506.137c2.202,-32.127 0.56,-92.538 1.562,-196.14c0.239,-24.661 -2.261,-25.786 10.345,-47.031c1.411,-2.378 7.243,-6.334 3.757,-10.081c-2.945,-3.166 -3.67,-1.483 -13.47,-1.392c-96.566,0.897 -96.801,0.066 -103.386,-2.838c-11.841,-5.222 -4.44,-9.996 12.904,-98.341c8.65,-44.058 12.33,-45.277 18.693,-46.845c0.99,-0.244 86.816,-1.029 103.779,-0.851c88.259,0.927 88.24,0.241 95.875,0.973c7.114,0.683 13.293,0.384 15.93,22.43c0.871,7.28 2.003,69.669 1.809,127.984c-1.082,324.195 2.807,324.579 -8.28,396.25c-4.68,30.252 -30.617,89.494 -32.309,92.3c-20.058,33.263 -42.138,50.968 -57.618,62.612c-23.659,17.797 -76.705,40.396 -107.577,43.289c-8.289,0.777 -10.351,1.943 -15.626,2.695c-41.417,5.901 -46.998,-5.288 -51.908,-21.243c-1.602,-5.205 -3.856,-12.531 -4.925,-67.897c-0.912,-47.208 0.189,-49.657 5.59,-55.041c14.64,-14.594 76.826,-1.5 101.902,-69.38c19.782,-53.55 22.39,-121.586 22.953,-131.452Z" style="fill:rgb(254,254,254);"/>
        <path d="M1277.958,289.164c-72.903,-0.112 -73.893,-3.296 -80.472,-6.198c-10.051,-4.433 -16.172,-10.097 -20.599,-16.703c-3.717,-5.548 -6.521,-12.155 -7.329,-21.075c-0.452,-4.99 -0.176,-12.118 1.964,-22.73c2.624,-13.012 8.724,-36.181 17.202,-79.368c5.004,-25.49 9.05,-38.974 12.314,-46.428c6.699,-15.297 14.554,-20.864 21.198,-24.612c4.138,-2.334 8.302,-3.833 13.007,-4.992c1.079,-0.266 94.648,-2.132 113.144,-1.938c91.196,0.958 91.174,0.386 99.064,1.143c12.419,1.192 22.941,4.37 32.591,14.029c6.099,6.105 14.082,16.952 16.991,41.275c0.902,7.541 2.275,72.16 2.074,132.563c-1.097,328.789 2.524,329.171 -8.721,401.857c-5.374,34.737 -35.312,102.71 -37.255,105.932c-23.425,38.846 -49.11,59.616 -67.189,73.215c-27.825,20.931 -90.313,47.255 -126.621,50.658c-7.348,0.688 -9.159,1.817 -13.835,2.483c-42.906,6.113 -62.628,-4.144 -74.099,-14.68c-9.207,-8.456 -14.857,-19.393 -18.939,-32.658c-1.847,-6.001 -5.345,-14.375 -6.577,-78.204c-1.384,-71.662 8.41,-74.15 16.608,-82.323c8.032,-8.007 22.701,-14.414 42.204,-18.672c15.854,-3.461 39.813,-6.873 50.997,-37.145c18.139,-49.101 20.175,-111.546 20.691,-120.593l0.027,-0.428c2.177,-31.766 0.485,-91.499 1.476,-193.939c0.083,-8.539 -0.004,-15.053 0.085,-20.47Zm35.851,216.973c-0.563,9.866 -3.171,77.902 -22.953,131.452c-25.076,67.88 -87.263,54.786 -101.902,69.38c-5.401,5.384 -6.502,7.833 -5.59,55.041c1.069,55.367 3.324,62.692 4.925,67.897c4.91,15.956 10.491,27.144 51.908,21.243c5.274,-0.751 7.337,-1.918 15.626,-2.695c30.872,-2.893 83.918,-25.492 107.577,-43.289c15.48,-11.644 37.56,-29.349 57.618,-62.612c1.692,-2.806 27.629,-62.049 32.309,-92.3c11.087,-71.671 7.198,-72.055 8.28,-396.25c0.195,-58.315 -0.938,-120.704 -1.809,-127.984c-2.637,-22.045 -8.816,-21.747 -15.93,-22.43c-7.635,-0.733 -7.616,-0.046 -95.875,-0.973c-16.963,-0.178 -102.789,0.607 -103.779,0.851c-6.363,1.568 -10.043,2.787 -18.693,46.845c-17.344,88.345 -24.745,93.119 -12.904,98.341c6.585,2.904 6.82,3.735 103.386,2.838c9.8,-0.091 10.525,-1.773 13.47,1.392c3.486,3.747 -2.346,7.704 -3.757,10.081c-12.606,21.245 -10.106,22.37 -10.345,47.031c-1.003,103.602 0.639,164.013 -1.562,196.14Z"/>
        <path d="M658.127,225.951c0.338,-10.086 -0.382,-10.066 1.346,-20.027c6.25,-36.025 8.564,-58.166 33.424,-78.823c9.318,-7.743 29.162,-16.999 39.392,-20.271c25.287,-8.086 28.861,-4.664 75.711,-4.562c23.255,0.051 31.277,1.07 33.195,-3.647c2.301,-5.66 -3.465,-36.232 7.881,-42.856c4.356,-2.543 7.525,-4.393 62.919,-4.093c47.881,0.26 48.185,0.503 51.401,3.076c7.14,5.712 4.457,37.126 7.591,43.894c2.238,4.831 14.87,2.834 21.001,2.699c61.078,-1.348 85.208,5.669 92.325,7.739c12.452,3.621 34.903,22.599 41.79,34.181c16.377,27.54 22.033,53.735 21.463,178.734c-1.272,278.937 6.129,353.315 -14.232,388.738c-21.866,38.041 -43.28,42.236 -73.166,48.129c-10.69,2.108 -14.237,2.807 -136.169,2.996c-11.839,0.018 -138.032,0.213 -147.983,-0.304c-27.847,-1.446 -54.124,-5.827 -82.558,-25.525c-14.292,-9.901 -31.43,-38.014 -34.565,-65.901c-2.473,-21.993 -2.14,-132.6 -2.106,-144.132c0.112,-37.256 -1.33,-254.71 1.338,-300.046Zm347.461,360.049c-0.01,1.566 1.061,15.719 -2.867,18.176c-3.836,2.4 -58.392,1.316 -154.736,2.561c-43.452,0.562 -43.882,0.313 -46.677,-2.169c-3.958,-3.516 -2.736,-4.692 -2.723,-174.567c0.003,-44.948 0.545,-169.924 0.978,-172.078c1.146,-5.698 7.68,-6.217 8.525,-6.285c0.881,-0.07 125.173,-0.629 171.909,-0.226c17.801,0.153 18.258,-0.976 20.952,1.321c2.867,2.444 2.778,2.913 3.747,25.254c0.167,3.851 0.818,158.244 0.876,172.005c0.197,46.766 0.039,125.128 0.017,136.008Z" style="fill:rgb(254,254,254);"/>
        <path d="M805.349,64.759c0.34,-3.079 0.787,-5.952 1.372,-8.326c3.808,-15.451 12.486,-26.654 23.448,-33.054c5.703,-3.329 9.51,-9.601 82.029,-9.207c31.434,0.171 44.123,0.515 50.008,1.227c15.697,1.899 18.982,5.559 24.615,10.065c5.947,4.757 11.979,12.419 15.402,23.525c1.073,3.481 1.958,8.923 2.664,14.683c58.53,-0.195 82.462,7.237 89.897,9.399c18.797,5.466 53.153,33.539 63.55,51.022c18.183,30.576 27.364,59.29 26.731,198.073c-0.767,168.118 1.573,262.262 -0.826,318.365c-1.979,46.266 -8.273,71.284 -18.393,88.89c-29.62,51.531 -57.938,58.249 -98.423,66.233c-11.256,2.22 -14.978,3.506 -143.366,3.704c-11.999,0.019 -139.899,0.17 -149.985,-0.354c-34.454,-1.789 -66.788,-7.778 -101.968,-32.148c-20.245,-14.024 -46.035,-53.036 -50.476,-92.537c-2.546,-22.65 -2.376,-136.558 -2.34,-148.434c0.112,-37.381 -1.274,-254.916 1.374,-301.639l0,-0.008c0.393,-12.232 -0.286,-12.345 1.862,-24.723c8.131,-46.867 14.065,-74.383 46.407,-101.255c12.326,-10.242 38.404,-22.819 51.936,-27.146c28.654,-9.162 33.055,-6.556 84.482,-6.352Zm-147.223,161.191c-2.669,45.336 -1.227,262.79 -1.338,300.046c-0.035,11.532 -0.367,122.139 2.106,144.132c3.135,27.887 20.273,56 34.565,65.901c28.434,19.697 54.711,24.079 82.558,25.525c9.951,0.517 136.144,0.322 147.983,0.304c121.932,-0.188 125.479,-0.887 136.169,-2.996c29.887,-5.893 51.3,-10.088 73.166,-48.129c20.361,-35.423 12.959,-109.801 14.232,-388.738c0.57,-124.999 -5.086,-151.195 -21.463,-178.734c-6.887,-11.581 -29.338,-30.56 -41.79,-34.181c-7.117,-2.07 -31.248,-9.087 -92.325,-7.739c-6.131,0.135 -18.764,2.132 -21.001,-2.699c-3.134,-6.768 -0.451,-38.182 -7.591,-43.894c-3.217,-2.573 -3.52,-2.816 -51.401,-3.076c-55.393,-0.301 -58.562,1.55 -62.919,4.093c-11.347,6.624 -5.58,37.196 -7.881,42.856c-1.917,4.717 -9.939,3.697 -33.195,3.647c-46.85,-0.102 -50.424,-3.523 -75.711,4.562c-10.23,3.271 -30.074,12.528 -39.392,20.271c-24.86,20.656 -27.174,42.798 -33.424,78.823c-1.728,9.961 -1.008,9.941 -1.346,20.027Zm347.461,360.049c-0.01,1.566 1.061,15.719 -2.867,18.176c-3.836,2.4 -58.392,1.316 -154.736,2.561c-43.452,0.562 -43.882,0.313 -46.677,-2.169c-3.958,-3.516 -2.736,-4.692 -2.723,-174.567c0.003,-44.948 0.545,-169.924 0.978,-172.078c1.146,-5.698 7.68,-6.217 8.525,-6.285c0.881,-0.07 125.173,-0.629 171.909,-0.226c17.801,0.153 18.258,-0.976 20.952,1.321c2.867,2.444 2.778,2.913 3.747,25.254c0.167,3.851 0.818,158.244 0.876,172.005c0.197,46.766 0.039,125.128 0.017,136.008Zm-169.337,-16.648c3.447,-0.024 7.205,-0.06 11.25,-0.112c50.925,-0.658 94.277,-1.121 120.62,-1.385c0.045,-28.494 0.1,-82.214 -0.049,-117.706c-0.05,-11.775 -0.517,-127.421 -0.75,-161.319c-36.063,-0.171 -96.489,-0.046 -130.67,0.069c-0.304,40.276 -0.563,109.968 -0.566,141.104c-0.005,69.318 0.089,114.267 0.166,139.349Z"/>
        <path d="M142.438,498l0,-128c-0,-111.828 0.619,-112.155 -1.658,-116.581c-2.686,-5.22 -34.962,-4.355 -41.683,-10.224c-6.374,-5.566 -2.496,-7.312 7.518,-65.484c0.26,-1.51 12.538,-53.636 13.337,-55.727c7.291,-19.08 9.968,-19.554 28.049,-19.553c17.6,0.002 215.894,0.02 220.001,0.071c89.183,1.1 209.815,0.834 215.943,1.097c29.011,1.245 27.022,26.667 26.899,50.39c-0.223,42.847 0.497,102.819 0.498,124.014c0.001,11.837 0.006,107.994 -0.816,147.965c-0.25,12.166 -4.925,61.663 -6.107,68.096c-0.591,3.215 -6.486,35.305 -7.893,40.091c-9.842,33.49 -9.883,33.421 -10.722,36.333c-1.557,5.401 -9.737,33.78 -28.91,64.036c-4.447,7.017 -25.174,42.505 -48.323,64.093c-62.522,58.303 -129.041,59.819 -144.435,60.929c-12.46,0.898 -19.107,1.377 -156.144,1.498c-73.48,0.065 -98.015,3.445 -102.407,-19.317c-0.959,-4.969 -1.196,-117.675 0.636,-124.268c2.016,-7.255 10.863,-6.801 21.743,-7.862c9.374,-0.914 12.379,1.372 14.396,-7.767c0.088,-0.399 0.076,-0.382 0.076,-103.831Zm143.861,12.003c-0.324,-158.339 -0.742,-158.246 -0.419,-172.003c1.184,-50.356 -1.334,-80.949 1.811,-84.248c3.331,-3.494 4.017,-3.404 60.29,-2.533c73.523,1.139 106.994,-0.974 112.817,1.206c5.684,2.128 4.093,15.363 4.091,17.577c-0.174,174.495 1.218,194.093 -11.235,240.453c-21.907,81.553 -66.351,92.395 -109.576,96.414c-14.201,1.321 -47.755,0.393 -48.183,0.356c-0.799,-0.069 -7.262,-0.629 -8.762,-4.858c-0.081,-0.228 -0.883,-0.189 -0.833,-92.363Z" style="fill:rgb(254,254,254);"/>
        <path d="M104.925,574.912c0.007,-15.673 0.013,-40.042 0.013,-76.912l0,-128c-0,-40.788 -0.059,-68.795 -0.113,-86.048c-4.525,-0.793 -8.761,-1.654 -11.531,-2.484c-8.394,-2.516 -14.68,-6.375 -18.863,-10.028c-6.723,-5.871 -10.466,-11.546 -13.037,-18.347c-2.036,-5.386 -3.591,-12.044 -2.615,-22.192c0.735,-7.642 4.582,-22.962 10.881,-59.552c0.293,-1.702 14.363,-60.395 15.264,-62.751c7.922,-20.732 16.185,-29.522 24.531,-34.962c8.313,-5.418 18.984,-8.707 38.551,-8.705c17.637,0.002 216.344,0.023 220.46,0.074c89.656,1.106 210.928,0.865 217.088,1.129c20.636,0.886 34.079,8.404 43.589,17.952c8.765,8.8 14.492,20.197 17.185,33.694c2.176,10.907 2.082,23.836 2.017,36.405c-0.222,42.779 0.498,102.655 0.499,123.818c0.001,11.899 0.002,108.558 -0.823,148.738c-0.272,13.24 -5.43,67.101 -6.716,74.101c-0.647,3.522 -7.256,38.646 -8.797,43.889c-9.791,33.318 -9.833,33.249 -10.668,36.146c-1.792,6.217 -11.196,38.893 -33.267,73.722c-4.976,7.852 -28.521,47.291 -54.424,71.446c-72.476,67.585 -149.469,69.62 -167.314,70.906c-12.672,0.913 -19.432,1.472 -158.807,1.595c-49.003,0.043 -78.388,0.493 -95.137,-3.883c-27.033,-7.063 -39.397,-21.329 -44.124,-45.83c-0.824,-4.269 -1.801,-82.589 -0.891,-117.373c0.341,-13.028 1.628,-21.917 2.218,-24.039c4.314,-15.524 13.78,-25.104 28.144,-30.589c1.988,-0.759 4.231,-1.386 6.689,-1.919Zm37.513,-76.912c-0,103.449 0.012,103.432 -0.076,103.831c-2.017,9.139 -5.022,6.853 -14.396,7.767c-10.88,1.061 -19.727,0.606 -21.743,7.862c-1.832,6.594 -1.595,119.3 -0.636,124.268c4.392,22.763 28.927,19.382 102.407,19.317c137.037,-0.121 143.684,-0.6 156.144,-1.498c15.394,-1.11 81.913,-2.626 144.435,-60.929c23.15,-21.587 43.876,-57.075 48.323,-64.093c19.173,-30.256 27.353,-58.635 28.91,-64.036c0.839,-2.912 0.88,-2.843 10.722,-36.333c1.407,-4.786 7.302,-36.876 7.893,-40.091c1.182,-6.432 5.857,-55.93 6.107,-68.096c0.821,-39.972 0.816,-136.128 0.816,-147.965c-0.001,-21.196 -0.721,-81.167 -0.498,-124.014c0.123,-23.723 2.112,-49.145 -26.899,-50.39c-6.128,-0.263 -126.76,0.003 -215.943,-1.097c-4.108,-0.051 -202.401,-0.069 -220.001,-0.071c-18.08,-0.002 -20.758,0.473 -28.049,19.553c-0.799,2.091 -13.077,54.217 -13.337,55.727c-10.014,58.172 -13.892,59.918 -7.518,65.484c6.72,5.869 38.997,5.004 41.683,10.224c2.277,4.426 1.658,4.754 1.658,116.581l0,128Zm143.861,12.003c-0.324,-158.339 -0.742,-158.246 -0.419,-172.003c1.184,-50.356 -1.334,-80.949 1.811,-84.248c3.331,-3.494 4.017,-3.404 60.29,-2.533c73.523,1.139 106.994,-0.974 112.817,1.206c5.684,2.128 4.093,15.363 4.091,17.577c-0.174,174.495 1.218,194.093 -11.235,240.453c-21.907,81.553 -66.351,92.395 -109.576,96.414c-14.201,1.321 -47.755,0.393 -48.183,0.356c-0.799,-0.069 -7.262,-0.629 -8.762,-4.858c-0.081,-0.228 -0.883,-0.189 -0.833,-92.363Zm37.611,-221.561c0.004,13.964 -0.107,32.038 -0.54,50.439c-0.322,13.68 0.106,13.588 0.429,171.045l0,0.097c-0.015,27.215 0.068,46.547 0.175,60.05c6.474,-0.032 12.687,-0.176 16.631,-0.543c15.329,-1.426 31.169,-3.057 44.824,-12.567c13.789,-9.603 24.162,-27.032 32.007,-56.237c11.473,-42.712 9.935,-61.784 9.942,-211.444c-18.683,0.037 -46.373,-0.047 -79.979,-0.567c-8.916,-0.138 -16.793,-0.222 -23.49,-0.272Z"/>
    </g>
</svg>
